<?xml version="1.0" encoding="UTF-8"?>
<svg version="1.1" xmlns="http://www.w3.org/2000/svg" width="282" height="282">
<path d="M0 0 C11.27796716 9.6546234 19.69223776 22.9115661 21.203125 37.89453125 C22.20857897 54.16134017 19.00695956 68.80917695 8.8515625 81.93359375 C5.81473603 85.36609794 3.02448917 88.34695514 -0.796875 90.89453125 C-0.11882812 91.30703125 0.55921875 91.71953125 1.2578125 92.14453125 C24.89527983 106.81154699 40.62464052 126.72103661 47.73046875 153.87451172 C49.04263964 159.48241563 49.71219169 165.16015747 50.203125 170.89453125 C50.2753125 171.72082031 50.3475 172.54710937 50.421875 173.3984375 C50.6295387 177.95838623 49.66255782 181.06874686 47.203125 184.89453125 C43.53403943 187.3405883 40.46693731 187.73399527 36.203125 186.89453125 C33.51207302 184.71878709 31.74779572 182.98387269 30.203125 179.89453125 C29.9915252 177.80576885 29.7847491 175.71634197 29.60888672 173.62426758 C27.68964164 151.26957065 19.70278016 132.17924616 2.44140625 117.5546875 C-11.05554825 107.21536572 -27.22715041 102.15723087 -44.18359375 104.328125 C-62.05156013 107.28469498 -76.70499765 116.56852119 -87.796875 130.89453125 C-97.05681267 143.9854124 -101.4236688 159.54780471 -102.171875 175.45703125 C-102.43210185 179.02792195 -102.75199979 181.66068273 -104.796875 184.64453125 C-108.31114796 187.28023597 -110.24043626 187.57116978 -114.515625 187.59375 C-118.08093942 186.50095671 -119.56232486 184.85589009 -121.796875 181.89453125 C-122.31715207 178.80653381 -122.51254916 176.40676698 -122.421875 173.33203125 C-122.40640625 172.5013916 -122.3909375 171.67075195 -122.375 170.81494141 C-121.55048496 149.67485134 -113.26156662 130.01389565 -99.796875 113.89453125 C-98.87841797 112.71503906 -98.87841797 112.71503906 -97.94140625 111.51171875 C-92.28381958 104.5875082 -85.16511946 99.82169647 -77.796875 94.89453125 C-77.21454102 94.50475098 -76.63220703 94.1149707 -76.03222656 93.71337891 C-74.62186877 92.77162386 -73.20958245 91.83275793 -71.796875 90.89453125 C-72.498125 90.27449219 -73.199375 89.65445313 -73.921875 89.015625 C-86.72659358 77.06339448 -93.49636266 63.16570204 -94.171875 45.39453125 C-93.56872086 28.28003245 -86.82909308 13.53096714 -74.51953125 1.70703125 C-52.93242127 -16.76621684 -22.4762822 -16.91999456 0 0 Z M-63.0546875 17.96875 C-71.76254766 27.1746612 -74.32349495 36.55061438 -74.0703125 49 C-73.33399097 59.48732241 -68.47751953 67.50273305 -60.953125 74.64453125 C-52.46604448 81.60115463 -43.27398993 83.60703221 -32.44921875 83.27734375 C-21.8446895 82.16585298 -13.65624119 77.30260296 -6.546875 69.51953125 C0.0370224 61.34333257 2.62792145 52.35407348 2.078125 41.89453125 C0.69217198 29.85213944 -4.69407795 21.54873153 -14.171875 14.00390625 C-29.63206912 3.24444683 -49.25570823 5.29183306 -63.0546875 17.96875 Z " fill="#000000" transform="translate(143.796875,53.10546875)"/>
<path d="M0 0 C13.67433731 6.52425476 24.73088351 16.64275033 30.453125 30.8671875 C35.79019174 46.20583053 36.61633468 61.80043373 29.97265625 76.90625 C26.1416652 84.52378904 21.41456418 90.60514682 15.4140625 96.62890625 C14.54007813 97.50675781 14.54007813 97.50675781 13.6484375 98.40234375 C13.24109375 98.80710937 12.83375 99.211875 12.4140625 99.62890625 C13.04570312 99.9228125 13.67734375 100.21671875 14.328125 100.51953125 C28.25270935 107.50188767 38.68221182 117.90304239 47.4140625 130.62890625 C47.98640625 131.44746094 48.55875 132.26601562 49.1484375 133.109375 C58.94892336 148.18898855 65.20655244 169.67310186 63.4140625 187.62890625 C62.02858095 190.65177509 60.74534825 192.2976205 58.4140625 194.62890625 C54.05181245 195.79217293 51.40337552 195.78529166 47.4140625 193.62890625 C44.97421752 191.62474787 44.44282295 190.71518761 43.4140625 187.62890625 C43.22283951 185.56078801 43.0348081 183.492275 42.87011719 181.421875 C41.08595002 159.94422285 33.57811785 141.77085335 17.5390625 126.81640625 C7.031667 118.11919572 -5.47646512 113.50598882 -18.9284668 112.39941406 C-23.41515194 111.98548226 -26.71465898 110.93310051 -30.5859375 108.62890625 C-33.21592228 105.28165289 -33.01936748 101.74649105 -32.5859375 97.62890625 C-30.79031345 94.87561604 -29.53338828 93.10263164 -26.5859375 91.62890625 C-24.58908544 91.33576372 -22.58831469 91.06906469 -20.5859375 90.81640625 C-9.9932955 89.21641512 -0.5288614 85.7529706 6.359375 77.21875 C12.69840471 68.00195994 15.35243197 58.6599277 13.984375 47.51171875 C11.94204213 37.18814577 7.05369691 29.08015857 -1.3984375 22.81640625 C-8.55542997 18.11996425 -14.91918056 16.5974693 -23.3515625 15.9296875 C-26.36823633 15.52359679 -28.26681248 14.58566798 -30.5859375 12.62890625 C-32.91420125 9.41368488 -32.98304931 6.520602 -32.5859375 2.62890625 C-31.34930459 -0.09168615 -30.3875802 -1.82485814 -27.90625 -3.515625 C-19.52369525 -6.60616286 -7.88876493 -3.12523306 0 0 Z " fill="#000000" transform="translate(196.5859375,46.37109375)"/>
</svg>
