<?xml version="1.0" encoding="UTF-8"?>
<svg version="1.1" xmlns="http://www.w3.org/2000/svg" width="282" height="282">
<path d="M0 0 C0.78555771 -0.01248276 1.57111542 -0.02496552 2.38047791 -0.03782654 C33.87446072 -0.44184694 33.87446072 -0.44184694 48.8671875 5.2734375 C50.59001953 5.83224609 50.59001953 5.83224609 52.34765625 6.40234375 C79.68262979 15.77526777 102.50771414 38.37933069 115.09716797 64.01928711 C122.72156575 80.32844236 126.26644996 96.32767799 126.2421875 114.3359375 C126.24164368 115.01874786 126.24109985 115.70155823 126.24053955 116.40505981 C126.20017842 127.44770404 125.3123203 137.73091163 121.8671875 148.2734375 C121.65288086 148.9535791 121.43857422 149.6337207 121.21777344 150.33447266 C116.39676952 165.30625119 108.62153083 177.97693906 98.8671875 190.2734375 C98.40570313 190.87800781 97.94421875 191.48257813 97.46875 192.10546875 C81.04271991 212.99629225 52.64110884 226.64526861 26.54296875 229.86328125 C-6.41026558 233.15930671 -37.17046801 224.96218077 -63.1328125 204.2734375 C-65.61203254 202.05246955 -67.89517471 199.73420157 -70.1328125 197.2734375 C-70.9578125 196.4690625 -71.7828125 195.6646875 -72.6328125 194.8359375 C-93.74638904 173.19452155 -104.54831997 145.2766899 -104.5078125 115.2109375 C-104.50726868 114.52812714 -104.50672485 113.84531677 -104.50616455 113.14181519 C-104.46580342 102.09917096 -103.5779453 91.81596337 -100.1328125 81.2734375 C-99.81135254 80.2532251 -99.81135254 80.2532251 -99.48339844 79.21240234 C-90.53006441 51.40754332 -70.56211304 26.52753247 -44.62109375 12.83203125 C-30.68520856 5.80404483 -15.74302227 0.22712982 0 0 Z M0.8671875 39.2734375 C-0.54916083 42.10613416 -0.479113 44.74810188 -0.6953125 47.8984375 C-0.77910156 49.08695313 -0.86289063 50.27546875 -0.94921875 51.5 C-1.04009766 52.87285156 -1.04009766 52.87285156 -1.1328125 54.2734375 C-1.75027344 54.35980469 -2.36773437 54.44617188 -3.00390625 54.53515625 C-12.88126846 56.17386627 -20.91550676 60.26208334 -27.1328125 68.2734375 C-30.22089191 73.31356711 -32.75162025 78.30142566 -33.1328125 84.2734375 C-33.18308594 84.93730469 -33.23335938 85.60117188 -33.28515625 86.28515625 C-33.6988741 95.76756932 -30.67934292 103.08007399 -25.4375 110.8515625 C-16.95676195 119.76352451 -5.76418997 122.23511701 5.6796875 125.5859375 C7.48413145 126.12689783 9.28817222 126.66920491 11.09179688 127.21289062 C18.99938846 129.7052116 18.99938846 129.7052116 27.03227234 131.71452332 C28.8671875 132.2734375 28.8671875 132.2734375 30.1171875 134.3359375 C31.38985398 139.32054788 31.70222948 143.48948418 29.4921875 148.2109375 C27.8671875 150.2734375 27.8671875 150.2734375 25.8671875 151.2734375 C21.67525056 151.50879934 17.48147823 151.50187827 13.28344727 151.51367188 C11.20482493 151.52332081 9.12721592 151.55431577 7.04882812 151.5859375 C5.71354751 151.59247371 4.37825984 151.59772175 3.04296875 151.6015625 C1.83552002 151.6109082 0.62807129 151.62025391 -0.6159668 151.62988281 C-4.73275689 151.21263092 -7.39284219 149.99387497 -11.1328125 148.2734375 C-14.74696831 148.28966874 -15.94814321 149.123462 -18.7734375 151.41796875 C-20.06507812 152.73861328 -20.06507812 152.73861328 -21.3828125 154.0859375 C-22.68992187 155.39498047 -22.68992187 155.39498047 -24.0234375 156.73046875 C-26.47647406 159.66743115 -26.47647406 159.66743115 -27.1328125 163.2734375 C-21.46411238 170.8968618 -12.21379482 173.64902327 -3.1875 175.01171875 C-2.17042969 175.14126953 -2.17042969 175.14126953 -1.1328125 175.2734375 C-1.11863281 176.15386719 -1.10445312 177.03429687 -1.08984375 177.94140625 C-0.83127286 185.05005452 -0.83127286 185.05005452 1.6796875 191.5859375 C6.67737716 194.2317732 11.34636632 194.1668484 16.8671875 193.2734375 C20.32233998 191.81881129 20.32233998 191.81881129 21.8671875 188.2734375 C22.549575 183.9376523 22.79655822 179.65887397 22.8671875 175.2734375 C23.81078125 175.12648437 23.81078125 175.12648437 24.7734375 174.9765625 C34.82343436 173.22084016 42.86269703 169.65401015 48.9921875 161.2109375 C54.04191572 153.29796131 56.27992488 144.09619243 54.36328125 134.83984375 C51.86218945 125.45003052 47.16954281 117.61339038 38.8671875 112.2734375 C31.63938646 108.93818784 24.01538311 106.63733047 16.4296875 104.2734375 C12.23500745 102.96147892 8.04776818 101.62965946 3.8671875 100.2734375 C2.30073486 99.7784375 2.30073486 99.7784375 0.70263672 99.2734375 C-0.28591309 98.9434375 -1.27446289 98.6134375 -2.29296875 98.2734375 C-3.17734619 97.9846875 -4.06172363 97.6959375 -4.97290039 97.3984375 C-7.61109292 96.02432298 -8.19018831 95.06183347 -9.1328125 92.2734375 C-9.55449579 86.96022802 -9.64424402 83.56518713 -6.1328125 79.2734375 C-1.1947574 77.62741913 3.92735588 78.04834369 9.09912109 78.03320312 C11.09615055 78.0235393 13.09303802 77.99235234 15.08984375 77.9609375 C21.94499988 77.93315571 26.74669817 78.26281842 32.8671875 81.2734375 C37.61248192 81.23786558 39.90502445 78.83149244 43.1796875 75.5859375 C44.50419922 74.31169922 44.50419922 74.31169922 45.85546875 73.01171875 C48.08483421 70.40457019 48.08483421 70.40457019 48.40625 67.140625 C48.1216143 64.23162004 48.1216143 64.23162004 46.21484375 62.48046875 C38.69680984 57.89254037 31.62982788 55.20563329 22.8671875 54.2734375 C22.84140625 53.38140625 22.815625 52.489375 22.7890625 51.5703125 C22.73234375 50.39984375 22.675625 49.229375 22.6171875 48.0234375 C22.57078125 46.86328125 22.524375 45.703125 22.4765625 44.5078125 C21.77239789 40.7703234 20.80869028 39.59567654 17.8671875 37.2734375 C12.57252567 34.62610659 5.33271105 35.52815968 0.8671875 39.2734375 Z " fill="#000000" transform="translate(130.1328125,-0.2734375)"/>
<path d="M0 0 C5.35465813 3.16052598 8.90321969 8.16655942 12.54150391 13.09814453 C18.56795195 20.95653594 26.92925414 26.57538815 35.22631836 31.77856445 C36.84805743 32.80571503 38.42865342 33.89730065 40 35 C40 35.66 40 36.32 40 37 C38.88963379 37.02505615 37.77926758 37.0501123 36.63525391 37.07592773 C32.52396681 37.16994915 28.41285077 37.27018257 24.30175781 37.37231445 C22.52087397 37.4156833 20.73994802 37.45735694 18.95898438 37.49731445 C16.40221452 37.5549699 13.84565702 37.6186777 11.2890625 37.68359375 C10.49005524 37.70030624 9.69104797 37.71701874 8.86782837 37.73423767 C4.80193632 37.75392991 4.80193632 37.75392991 1 39 C1 42.96 1 46.92 1 51 C4.14763631 52.57381815 7.51611195 52.13678375 10.97167969 52.12698364 C11.80502209 52.12854363 12.63836449 52.13010362 13.49695969 52.13171089 C16.30528248 52.13571769 19.11355175 52.13253247 21.921875 52.12939453 C23.92875195 52.13074871 25.93562865 52.13252874 27.94250488 52.13470459 C33.40516261 52.1392769 38.86780152 52.13749018 44.33045959 52.1343255 C50.03638766 52.13180087 55.74231406 52.13413973 61.44824219 52.13571167 C71.031904 52.13753306 80.61555811 52.13512785 90.19921875 52.13037109 C101.2929941 52.12492853 112.38675107 52.12669121 123.48052597 52.1321975 C132.99049919 52.13672949 142.50046687 52.13737875 152.01044083 52.13475883 C157.69686433 52.13319653 163.38327919 52.13300101 169.06970215 52.13629532 C174.41463586 52.13917528 179.75954579 52.13719602 185.10447693 52.13140106 C187.07095805 52.13007414 189.03744116 52.13046644 191.00392151 52.13266373 C193.67874852 52.13537786 196.35349829 52.13199082 199.02832031 52.12698364 C199.81488384 52.12921436 200.60144737 52.13144509 201.41184616 52.13374341 C205.33446903 52.19942386 205.33446903 52.19942386 209 51 C209 47.04 209 43.08 209 39 C205.78096915 37.39048457 202.25161168 37.75765252 198.7109375 37.68359375 C197.89251373 37.66281265 197.07408997 37.64203156 196.23086548 37.62062073 C193.61233034 37.55515188 190.99369361 37.49625274 188.375 37.4375 C186.60155193 37.39431224 184.82811419 37.35069786 183.0546875 37.30664062 C178.70322954 37.19947324 174.35166923 37.09819831 170 37 C171.26473537 33.20579388 172.47993244 32.86587531 175.875 30.875 C184.60144879 25.48149165 192.15475852 19.00140035 199.4375 11.8125 C199.9337085 11.32563721 200.42991699 10.83877441 200.94116211 10.3371582 C203.39547266 7.86105763 205.0800438 5.83506713 206.61328125 2.67578125 C209.45911394 -0.51471857 210.23344483 -0.45943078 214.359375 -0.7265625 C216.48985067 -0.72390605 218.62047921 -0.68883456 220.75 -0.625 C222.33941406 -0.63466797 222.33941406 -0.63466797 223.9609375 -0.64453125 C232.25009645 -0.53140377 237.76334134 0.75332529 243.68237305 6.69067383 C247.60055627 12.44145525 246.69577024 19.67004886 246.62890625 26.34765625 C246.62973598 27.84785636 246.63219931 29.34805638 246.63621521 30.84825134 C246.63906476 33.98285488 246.62445434 37.11674053 246.59692383 40.2512207 C246.56281177 44.2584199 246.56887643 48.26433893 246.5875864 52.27159977 C246.59818018 55.36615067 246.58919775 58.46040626 246.57420158 61.55492973 C246.56903866 63.0320288 246.56947853 64.50915895 246.57574654 65.98625374 C246.58122932 68.05408655 246.56073241 70.12011709 246.53344727 72.18774414 C246.5241494 73.94810753 246.5241494 73.94810753 246.5146637 75.74403381 C245.70305117 80.8786158 243.39964553 83.79058552 239.51787663 87.14476871 C234.70270797 89.6841561 230.73748617 89.55591012 225.37231445 89.50793457 C224.30153058 89.51417453 223.23074671 89.5204145 222.12751484 89.52684355 C218.53921305 89.54279928 214.9515881 89.53015857 211.36328125 89.51757812 C208.79087935 89.52299806 206.21848055 89.53012 203.64608765 89.53881836 C197.38432293 89.55659667 191.12275009 89.55276676 184.86097789 89.5411678 C179.77152988 89.532131 174.68213561 89.53091053 169.59268188 89.53526306 C168.86808252 89.53587599 168.14348315 89.53648893 167.39692622 89.53712043 C165.9248758 89.53839934 164.45282539 89.5396962 162.980775 89.5410108 C149.18019569 89.55241457 135.37972269 89.5393061 121.57916081 89.51780933 C109.73989511 89.4999385 97.9007863 89.50304267 86.06152344 89.52148438 C72.31003709 89.5428947 58.5586439 89.55131596 44.80714321 89.53903532 C43.34053486 89.53776114 41.87392649 89.53650365 40.40731812 89.53526306 C39.68573542 89.53464596 38.96415273 89.53402886 38.2207039 89.53339306 C33.13788669 89.52994063 28.05512861 89.53576616 22.97232056 89.54518127 C16.13012484 89.55757689 9.28823047 89.54874055 2.446064 89.52560425 C-0.06700523 89.52030932 -2.58009936 89.52184423 -5.09315872 89.53065491 C-8.51988249 89.54156236 -11.94565174 89.52790335 -15.37231445 89.50793457 C-16.37017314 89.51685746 -17.36803183 89.52578034 -18.39612865 89.53497362 C-24.10703826 89.47028613 -27.5063601 88.88289252 -32 85 C-35.57183342 80.69207512 -36.50411353 77.74149529 -36.53344727 72.18774414 C-36.54206284 71.53486923 -36.55067841 70.88199432 -36.55955505 70.20933533 C-36.58211627 68.06753012 -36.57549528 65.92704401 -36.56640625 63.78515625 C-36.57164654 62.28592036 -36.57792451 60.78668777 -36.58518982 59.28746033 C-36.59557596 56.15119877 -36.59105918 53.01539143 -36.57641602 49.87915039 C-36.55923627 45.87301634 -36.58272067 41.86831771 -36.61790562 37.86234379 C-36.63993695 34.7677624 -36.63842439 31.67352143 -36.6301403 28.57888603 C-36.62932379 27.10258854 -36.63612966 25.6262653 -36.65091133 24.15004158 C-36.76063284 11.20908779 -36.76063284 11.20908779 -33.68676758 6.68847656 C-25.10095645 -1.90279578 -11.4684765 -3.05594684 0 0 Z " fill="#000000" transform="translate(36,193)"/>
</svg>
