<?xml version="1.0" encoding="UTF-8"?>
<svg version="1.1" xmlns="http://www.w3.org/2000/svg" width="282" height="282">
<path d="M0 0 C1.12689526 -0.00573832 1.12689526 -0.00573832 2.27655607 -0.01159257 C4.7953274 -0.021916 7.31387048 -0.0179317 9.83265686 -0.01396179 C11.63792126 -0.01830862 13.44318381 -0.02349168 15.2484436 -0.02944946 C20.15336546 -0.04285361 25.05821032 -0.04341657 29.96314692 -0.04088616 C34.0562183 -0.03981744 38.14927403 -0.04469727 42.24234205 -0.04949158 C51.89745886 -0.0605916 61.55253676 -0.06102135 71.20765686 -0.05497742 C81.17220503 -0.04893576 91.13661206 -0.06125239 101.10113615 -0.08254749 C109.65325031 -0.10015292 118.2053195 -0.10616653 126.75745112 -0.10290974 C131.86661875 -0.1010951 136.97568571 -0.10375112 142.08483696 -0.11762428 C146.88898107 -0.13018084 151.69290487 -0.12827912 156.49704552 -0.11521339 C158.2606997 -0.11284335 160.02436929 -0.11559759 161.78800583 -0.12383652 C164.19478366 -0.13426961 166.6008175 -0.12623143 169.00756836 -0.11352539 C169.70621016 -0.12089968 170.40485196 -0.12827396 171.12466472 -0.13587171 C175.43209024 -0.08799994 178.18698968 0.54924904 181.567276 3.26069641 C183.59329562 6.20317629 183.82084442 8.62480775 183.83470154 12.14984131 C183.84749649 13.62393463 183.84749649 13.62393463 183.86054993 15.12780762 C183.85919037 16.73550774 183.85919037 16.73550774 183.85780334 18.37568665 C183.86452057 19.50940704 183.87123779 20.64312744 183.87815857 21.811203 C183.89717768 25.56394313 183.90106461 29.31650482 183.9032135 33.06929016 C183.9096381 35.67476475 183.9163662 38.28023861 183.92338562 40.88571167 C183.936171 46.34901595 183.939151 51.81227177 183.93788147 57.27558899 C183.93667967 63.58660937 183.95779074 69.89728797 183.9893688 76.20822185 C184.01868684 82.28443667 184.02585725 88.36048762 184.02466202 94.43676949 C184.02702498 97.0199886 184.03588737 99.60321014 184.05132675 102.1863842 C184.07088624 105.79665006 184.06518757 109.40603205 184.05311584 113.01631165 C184.06435486 114.08608749 184.07559387 115.15586334 184.08717346 116.25805664 C184.0254832 123.50551503 184.0254832 123.50551503 181.66191101 127.40097046 C177.99733637 130.65457051 174.99045789 130.40907797 170.2991333 130.40786743 C169.54141154 130.41154412 168.78368978 130.41522081 168.00300676 130.41900891 C165.45044847 130.43006894 162.89793086 130.43389349 160.34535217 130.43769836 C158.52067942 130.44396122 156.69600795 130.45060786 154.87133789 130.45761108 C149.90434131 130.47503635 144.93735436 130.48557682 139.97033477 130.49381661 C136.86900842 130.49896312 133.76768508 130.50503898 130.66636086 130.51132774 C120.96848076 130.53038335 111.2706083 130.54461418 101.57271308 130.55293971 C90.36786358 130.56271706 79.16321138 130.58904806 67.95843142 130.62944061 C59.30445503 130.65957014 50.6505353 130.67440555 41.99650747 130.67772073 C36.82466184 130.68007467 31.6530269 130.68907981 26.48123741 130.7141819 C21.61635395 130.73741259 16.75182062 130.74171606 11.88689613 130.73142052 C10.10065676 130.73092384 8.31440045 130.73728304 6.5282135 130.75097656 C4.09050992 130.76862021 1.65407321 130.76162733 -0.78363037 130.7484436 C-1.49141831 130.75941285 -2.19920624 130.7703821 -2.9284423 130.78168374 C-7.6870684 130.71949797 -10.08811126 129.62148986 -13.432724 126.26069641 C-14.64139962 123.84334517 -14.56376235 122.31319138 -14.57316589 119.61206055 C-14.57887604 118.63208099 -14.58458618 117.65210144 -14.59046936 116.64242554 C-14.59158722 115.56343491 -14.59270508 114.48444427 -14.59385681 113.37275696 C-14.59882172 112.23932861 -14.60378662 111.10590027 -14.60890198 109.93812561 C-14.62355175 106.17454937 -14.63033038 102.41101528 -14.635849 98.64741516 C-14.64159823 96.03908283 -14.64735599 93.43075051 -14.65312195 90.82241821 C-14.66269673 86.04765095 -14.66859137 81.27289283 -14.6716187 76.49811715 C-14.67609791 69.47194953 -14.69363834 62.4459766 -14.7226193 55.41986817 C-14.7468498 49.33406743 -14.7545635 43.248347 -14.75629425 37.16250038 C-14.75932537 34.57370252 -14.76736927 31.98490558 -14.78047943 29.39613914 C-14.7975025 25.77621528 -14.79566849 22.15676693 -14.78916931 18.53681946 C-14.79838409 17.46390152 -14.80759888 16.39098358 -14.8170929 15.28555298 C-14.7645715 5.96381179 -14.7645715 5.96381179 -11.432724 2.26069641 C-7.82458923 -0.1625029 -4.19564365 -0.02262422 0 0 Z M3.567276 98.26069641 C3.567276 98.59069641 3.567276 98.92069641 3.567276 99.26069641 C56.367276 99.26069641 109.167276 99.26069641 163.567276 99.26069641 C163.567276 98.93069641 163.567276 98.60069641 163.567276 98.26069641 C110.767276 98.26069641 57.967276 98.26069641 3.567276 98.26069641 Z " fill="#4F96FD" transform="translate(56.43272399902344,101.73930358886719)"/>
<path d="M0 0 C3 1 3 1 4.8125 3.8125 C6 7 6 7 5.53125 8.921875 C3.17316193 12.12213738 0.14104204 13.5036469 -3.3125 15.4375 C-13.67993899 21.39041658 -23.83511637 27.70745299 -34 34 C-0.34 34 33.32 34 68 34 C59.42 28.72 50.84 23.44 42 18 C32.296875 11.8125 32.296875 11.8125 28 9 C28.46019531 8.09507813 28.46019531 8.09507813 28.9296875 7.171875 C30.08612063 4.82524427 31.052134 2.4373697 32 0 C36.95338636 1.72033778 41.23133971 4.41382583 45.6875 7.125 C46.54239014 7.64126953 47.39728027 8.15753906 48.27807617 8.68945312 C56.9345156 13.93027479 65.54777636 19.24258932 74.15307617 24.56689453 C75.20213135 25.21513184 76.25118652 25.86336914 77.33203125 26.53125 C78.25733643 27.10423828 79.1826416 27.67722656 80.13598633 28.26757812 C81.5536731 29.12512695 81.5536731 29.12512695 83 30 C84.09070801 30.7226001 85.18141602 31.4452002 86.30517578 32.18969727 C90.42460178 34.51769184 94.14061693 34.52009193 98.78515625 34.43359375 C100.46679782 34.4431951 102.14843843 34.45296581 103.83007812 34.46289062 C106.45233794 34.45428499 109.07435336 34.43740002 111.6965332 34.4152832 C114.24738973 34.40072869 116.79684894 34.41603077 119.34765625 34.43359375 C120.12593277 34.41711288 120.90420929 34.40063202 121.70606995 34.38365173 C125.72518117 34.42032851 128.23432783 34.78333653 131.41577148 37.34790039 C135.44531481 41.48327396 136.25075894 43.57478844 136.26742554 49.24275208 C136.28022049 51.20484367 136.28022049 51.20484367 136.29327393 53.20657349 C136.29257487 54.65960705 136.29165179 56.11264053 136.29052734 57.56567383 C136.29651061 59.09331085 136.30331569 60.62094483 136.31088257 62.14857483 C136.32857224 66.30157628 136.33323924 70.45449535 136.33451414 74.60753083 C136.3364123 78.07415759 136.34376902 81.54076512 136.35085833 85.00738448 C136.36715181 93.18730592 136.37202648 101.36718334 136.37060547 109.54711914 C136.36940435 117.98422626 136.39049799 126.42107743 136.4220928 134.85811979 C136.44825085 142.10153844 136.45897294 149.3448735 136.45769465 156.58833903 C136.4571848 160.91456796 136.4628805 165.2405696 136.48405075 169.56675148 C136.50342486 173.63718012 136.50356351 177.7071645 136.48901749 181.77760887 C136.48692711 183.2699384 136.491644 184.76229566 136.5037384 186.25457764 C136.51920217 188.2950945 136.50747877 190.33576297 136.49447632 192.376297 C136.49556585 193.51726743 136.49665539 194.65823786 136.49777794 195.83378315 C135.8828306 199.74527955 134.43350485 201.91177194 132 205 C126.71783237 208.82028332 121.14207204 208.48279421 114.875 208.4375 C113.88628906 208.45748047 112.89757812 208.47746094 111.87890625 208.49804688 C104.71389534 208.4931991 104.71389534 208.4931991 101.30859375 206.140625 C100 204 100 204 100.1875 201.3125 C101 199 101 199 102 198 C103.62122423 197.85492735 105.24819889 197.7728999 106.875 197.71875 C108.35226563 197.66267578 108.35226563 197.66267578 109.859375 197.60546875 C113 197.5 113 197.5 116.140625 197.39453125 C117.61789063 197.33845703 117.61789063 197.33845703 119.125 197.28125 C120.03507813 197.25095703 120.94515625 197.22066406 121.8828125 197.18945312 C123.98425432 197.22950241 123.98425432 197.22950241 125 196 C125.09662973 194.063717 125.12187144 192.12385738 125.12025452 190.18516541 C125.12163201 188.92430839 125.12300951 187.66345137 125.12442875 186.36438656 C125.12088148 184.94857194 125.11724358 183.53275754 125.11352539 182.11694336 C125.11321928 180.61497532 125.11335216 179.11300714 125.11389065 177.61103916 C125.11411716 173.57508464 125.1083055 169.53915953 125.10128021 165.50321198 C125.09560115 161.72125654 125.09531796 157.93930841 125.09460449 154.15734863 C125.08934929 143.08406183 125.07538824 132.01078055 125.0625 120.9375 C125.0315625 83.8434375 125.0315625 83.8434375 125 46 C53.72 46 -17.56 46 -91 46 C-91.020625 70.729375 -91.04125 95.45875 -91.0625 120.9375 C-91.071604 128.75945068 -91.08070801 136.58140137 -91.09008789 144.64038086 C-91.09343135 151.62317635 -91.09343135 151.62317635 -91.09544373 158.60597229 C-91.0963792 161.72760217 -91.10014181 164.84921522 -91.10557556 167.97084045 C-91.11240254 171.94512222 -91.11449714 175.9193793 -91.11307228 179.89366639 C-91.1133705 181.35694076 -91.11537231 182.82021594 -91.11921513 184.28348529 C-91.12414393 186.25070585 -91.12240373 188.21793984 -91.12025452 190.18516541 C-91.12117631 191.29039519 -91.1220981 192.39562498 -91.12304783 193.53434658 C-91.27919362 195.94446764 -91.27919362 195.94446764 -90 197 C-87.97975789 197.10463616 -85.95581535 197.13800402 -83.93287659 197.14476013 C-82.61337006 197.15165863 -81.29386353 197.15855713 -79.93437195 197.16566467 C-78.45828261 197.16837962 -76.98219312 197.17101675 -75.50610352 197.17358398 C-73.96242077 197.17988542 -72.41873986 197.18665076 -70.87506104 197.19384766 C-67.54325807 197.20854504 -64.21146226 197.22025851 -60.87964058 197.22979546 C-55.61560362 197.24520619 -50.35162753 197.26915431 -45.08763123 197.29469299 C-30.11632119 197.36600922 -15.14497627 197.42573027 -0.17358398 197.47680664 C8.08909178 197.5050712 16.35170702 197.54043095 24.61431938 197.58346039 C29.85144577 197.61030047 35.08850363 197.62816391 40.32568538 197.63949764 C43.57951812 197.64859821 46.83326736 197.66594776 50.08705139 197.68567657 C51.60039017 197.69317494 53.11375033 197.6972345 54.62710762 197.69767189 C56.68686992 197.69874825 58.74620347 197.71193951 60.80589294 197.72825623 C61.96052253 197.73248816 63.11515211 197.7367201 64.30477047 197.74108028 C67 198 67 198 69 200 C69.35103111 202.73804268 69.46345512 204.32608421 67.87496567 206.63592625 C65.14305774 208.62344205 63.045542 208.38060606 59.68804932 208.38768005 C58.72381094 208.39575836 58.72381094 208.39575836 57.74009299 208.40399987 C55.58206882 208.41832847 53.42465384 208.41116399 51.26660156 208.40405273 C49.7208812 208.40975396 48.17516505 208.41671725 46.62945557 208.42485046 C42.42675746 208.4428294 38.22426761 208.44160407 34.02154255 208.43590808 C30.512753 208.43282152 27.00400377 208.43890309 23.49521995 208.44494683 C15.21455277 208.45900742 6.93398872 208.45741944 -1.34667969 208.44604492 C-9.8848893 208.43457564 -18.42278438 208.44861575 -26.96095252 208.4754414 C-34.29271905 208.49761298 -41.62438696 208.50423209 -48.95618463 208.49836498 C-53.33440948 208.49499604 -57.71243295 208.49740558 -62.09062958 208.51461601 C-66.21114672 208.53010522 -70.33119938 208.52610795 -74.4516983 208.50731087 C-75.96133842 208.5036297 -77.47101309 208.50671972 -78.98062134 208.51719666 C-93.47408874 208.61007587 -93.47408874 208.61007587 -99 204 C-101.86696807 200.10184969 -102.37991115 197.32280912 -102.40113831 192.52346802 C-102.42033073 190.55942017 -102.42033073 190.55942017 -102.43991089 188.55569458 C-102.43886243 187.11151096 -102.43747789 185.66732755 -102.43579102 184.22314453 C-102.44477107 182.69683086 -102.45497989 181.170524 -102.46632385 179.64422607 C-102.49280258 175.50365182 -102.49985639 171.3632636 -102.50177121 167.22261286 C-102.50390501 164.63431907 -102.51031224 162.04607244 -102.51826286 159.45779037 C-102.54600896 150.42414094 -102.55826927 141.39062423 -102.5559082 132.35693359 C-102.55410592 123.94239202 -102.5857628 115.52842747 -102.63313919 107.11403191 C-102.67239264 99.88412998 -102.68845879 92.65441645 -102.68654197 85.42440879 C-102.68577781 81.10868211 -102.69428641 76.79346838 -102.72607613 72.47784805 C-102.7551669 68.41788075 -102.75532696 64.3589151 -102.73352623 60.29891205 C-102.73039442 58.81183023 -102.73744416 57.32468553 -102.7556076 55.83771133 C-102.8997424 43.21716107 -102.8997424 43.21716107 -99.07945251 38.62277222 C-94.96941349 34.70520097 -91.56151456 34.92712753 -86.08984375 35.03515625 C-79.19073198 35.09841957 -72.30488606 35.0507104 -65.41015625 34.78515625 C-64.60698471 34.76775894 -63.80381317 34.75036163 -62.9763031 34.73243713 C-54.37251555 34.3414596 -47.94915406 31.05897126 -41.33398438 25.73974609 C-36.65406823 22.25134835 -31.52277556 19.40546705 -26.50592041 16.43139648 C-23.52530073 14.65832578 -20.56278204 12.85600399 -17.6015625 11.05078125 C-15.94108887 10.04265381 -15.94108887 10.04265381 -14.24707031 9.01416016 C-10.17280031 6.48688741 -6.18618226 3.83506144 -2.22021484 1.14135742 C-1.48754395 0.76470947 -0.75487305 0.38806152 0 0 Z " fill="#05255A" transform="translate(124,46)"/>
<path d="M0 0 C2.64 0 5.28 0 8 0 C9.00743388 4.08153621 10.0046554 8.16550029 11 12.25 C11.28617188 13.40886719 11.57234375 14.56773437 11.8671875 15.76171875 C12.13789063 16.87675781 12.40859375 17.99179688 12.6875 19.140625 C12.93886719 20.16704102 13.19023437 21.19345703 13.44921875 22.25097656 C14 25 14 25 14 29 C14.66 29 15.32 29 16 29 C16.1134375 27.84886719 16.226875 26.69773438 16.34375 25.51171875 C16.89788009 21.08160479 18.08580531 17.03488128 19.5 12.8125 C20.89515702 8.57520884 22.24670324 4.40849811 23 0 C25.31 0 27.62 0 30 0 C31.14978637 3.72795947 32.29413142 7.45756767 33.4375 11.1875 C33.76298828 12.24259766 34.08847656 13.29769531 34.42382812 14.38476562 C34.89272461 15.91713867 34.89272461 15.91713867 35.37109375 17.48046875 C35.8031311 18.88655396 35.8031311 18.88655396 36.24389648 20.32104492 C36.9627763 22.86811247 37.51932033 25.39855335 38 28 C38.98411806 24.4596903 39.96140579 20.91752957 40.9375 17.375 C41.21529297 16.37597656 41.49308594 15.37695312 41.77929688 14.34765625 C43.08846114 9.58419109 44.33855304 4.90642933 45 0 C47.97 0 50.94 0 54 0 C53.57847656 1.36511719 53.15695313 2.73023438 52.72265625 4.13671875 C50.40995086 11.84347336 48.48939605 19.65181563 46.51757812 27.45117188 C46.22173828 28.60810547 45.92589844 29.76503906 45.62109375 30.95703125 C45.3573999 31.99835205 45.09370605 33.03967285 44.82202148 34.11254883 C44.0465613 36.83644771 43.10349426 39.39400282 42 42 C39.69 42 37.38 42 35 42 C32.36 32.76 29.72 23.52 27 14 C24.38755336 21.82879141 24.38755336 21.82879141 21.875 29.6875 C21.54242188 30.74324219 21.20984375 31.79898438 20.8671875 32.88671875 C20.02325225 35.91652235 19.45686468 38.89052305 19 42 C16.36 42 13.72 42 11 42 C10.84442627 41.3922876 10.68885254 40.7845752 10.52856445 40.15844727 C7.68285494 29.07114529 4.81701656 18.00443462 1.47387695 7.05493164 C0 2.19375549 0 2.19375549 0 0 Z " fill="#0A2D65" transform="translate(135,147)"/>
<path d="M0 0 C2.64 0 5.28 0 8 0 C10.17075709 2.17874957 11.41652228 3.766174 12.9375 6.34375 C13.34790527 6.9874353 13.75831055 7.63112061 14.18115234 8.29431152 C15.48144103 10.34713046 16.74048532 12.4219691 18 14.5 C18.87629706 15.8987734 19.75517716 17.29593214 20.63671875 18.69140625 C22.7936595 22.10757795 24.89303934 25.55070151 27 29 C27.33 19.43 27.66 9.86 28 0 C30.31 0 32.62 0 35 0 C35 13.86 35 27.72 35 42 C27 42 27 42 24.56298828 39.67675781 C23.90540527 38.61295898 23.24782227 37.54916016 22.5703125 36.453125 C22.20904266 35.88551453 21.84777283 35.31790405 21.47555542 34.73309326 C20.33124794 32.92095462 19.22862881 31.08713232 18.125 29.25 C17.36194908 28.02963673 16.59634689 26.81086475 15.828125 25.59375 C13.03849363 21.14212794 10.35136761 16.70273521 8 12 C7.67 21.9 7.34 31.8 7 42 C4.69 42 2.38 42 0 42 C0 28.14 0 14.28 0 0 Z " fill="#0A2C64" transform="translate(59,147)"/>
<path d="M0 0 C1.04897461 -0.04930664 1.04897461 -0.04930664 2.11914062 -0.09960938 C6.05768148 -0.14013692 8.50665339 0.28238591 11.64453125 2.7578125 C14.49146143 5.75780344 14.99820222 7.36759768 15.1875 11.4375 C11.875 11.6875 11.875 11.6875 8.1875 11.4375 C7.48753906 10.45136719 7.48753906 10.45136719 6.7734375 9.4453125 C5.35284611 7.19667141 5.35284611 7.19667141 2.77734375 6.9765625 C1.46443359 7.01910156 1.46443359 7.01910156 0.125 7.0625 C-0.75285156 7.07539063 -1.63070312 7.08828125 -2.53515625 7.1015625 C-5.00756596 7.2350019 -5.00756596 7.2350019 -6.8125 9.4375 C-6.72138062 11.97701544 -6.72138062 11.97701544 -5.8125 14.4375 C-2.67270072 16.53069952 -0.71366637 16.96468026 2.9375 17.6875 C8.42444512 19.03260062 13.03080894 20.49380078 16.1875 25.4375 C17.38884523 30.1252667 16.63795462 33.5019404 14.5625 37.8125 C11.12291135 41.61415062 8.53196899 43.17338041 3.37890625 43.75390625 C-3.21848766 44.0092361 -7.62091283 43.63495345 -12.8125 39.4375 C-14.88995104 36.15378706 -15.8125 34.32090615 -15.8125 30.4375 C-12.3475 29.9425 -12.3475 29.9425 -8.8125 29.4375 C-8.3175 30.406875 -7.8225 31.37625 -7.3125 32.375 C-4.64803775 35.6877315 -4.64803775 35.6877315 -0.875 36.5 C2.00814463 36.6455045 3.40302593 36.35667778 6.1875 35.3125 C8.39001194 33.58702247 8.39001194 33.58702247 8.8125 30.9375 C8.42634179 28.25668613 8.42634179 28.25668613 6.01953125 26.859375 C3.04311781 25.36501018 0.51690147 24.7761309 -2.75 24.1875 C-7.81069701 22.98316643 -10.8294983 21.67517693 -13.8828125 17.40234375 C-15.60503466 13.76252129 -15.45752917 11.43668085 -14.8125 7.4375 C-10.90249521 1.23542344 -7.01965848 0.05727736 0 0 Z " fill="#0A2C63" transform="translate(207.8125,146.5625)"/>
<path d="M0 0 C9.57 0 19.14 0 29 0 C29 1.98 29 3.96 29 6 C21.74 6 14.48 6 7 6 C7 9.96 7 13.92 7 18 C13.27 18 19.54 18 26 18 C26 19.65 26 21.3 26 23 C19.73 23 13.46 23 7 23 C7 27.29 7 31.58 7 36 C14.26 36 21.52 36 29 36 C29 37.98 29 39.96 29 42 C19.43 42 9.86 42 0 42 C0 28.14 0 14.28 0 0 Z " fill="#092A61" transform="translate(102,147)"/>
<path d="M0 0 C3.80620414 2.46888917 6.54729821 4.64189462 8 9 C8.54508569 13.69131123 8.44834676 17.10330648 6.3125 21.375 C3.40158786 24.67927865 1.33639371 26.69358771 -3.14453125 27.28125 C-7.9149107 27.47111585 -11.20518088 27.1442787 -15 24 C-18.35129803 20.74179358 -19.80387442 17.84776746 -20.15234375 13.12109375 C-19.86582163 9.13182429 -18.49874794 6.1011858 -16 3 C-11.18381585 -0.88058988 -5.86081249 -2.24158565 0 0 Z " fill="#05255A" transform="translate(147,29)"/>
<path d="M0 0 C0.94552734 0.16242188 0.94552734 0.16242188 1.91015625 0.328125 C3.91015625 3.328125 3.91015625 3.328125 3.66015625 5.890625 C2.91015625 8.328125 2.91015625 8.328125 0.91015625 10.328125 C-2.22026105 10.66114812 -4.26882673 10.80484456 -7.02734375 9.203125 C-8.62927863 6.37618109 -7.88568694 4.37885723 -7.08984375 1.328125 C-5.19856033 -0.56315842 -2.51916649 0.0914398 0 0 Z " fill="#06265B" transform="translate(218.08984375,243.671875)"/>
</svg>
