<?xml version="1.0" encoding="UTF-8"?>
<svg version="1.1" xmlns="http://www.w3.org/2000/svg" width="282" height="282">
<path d="M0 0 C6.95017929 6.11136455 10.63566334 14.43112154 11.3203125 23.53125 C11.82798705 38.20462558 7.93610545 53.71586848 -2.3359375 64.73046875 C-2.81804687 65.24480469 -3.30015625 65.75914062 -3.796875 66.2890625 C-5.89002173 68.99329569 -5.9609375 71.46338734 -5.9609375 74.79296875 C-5.51810545 78.39033861 -5.51810545 78.39033861 -3.9609375 81.79296875 C-1.52329077 83.18947225 0.29274501 83.98593601 2.9140625 84.79296875 C4.2825432 85.2792151 5.64842374 85.77283622 7.01171875 86.2734375 C7.69250488 86.5214209 8.37329102 86.7694043 9.07470703 87.02490234 C19.17743783 90.97508767 29.41405287 98.12381155 35.6640625 107.10546875 C38.05455768 113.51634219 38.29485047 119.91512132 35.5390625 126.23046875 C25.44577764 136.57608573 9.40573094 138.62335658 -4.53662109 138.95410156 C-6.14414437 138.97393085 -7.75175141 138.98768636 -9.359375 138.99609375 C-10.23381256 139.00179382 -11.10825012 139.0074939 -12.00918579 139.0133667 C-13.85295426 139.0227558 -15.69673905 139.02932623 -17.54052734 139.03320312 C-20.29426289 139.04282316 -23.04722285 139.07386973 -25.80078125 139.10546875 C-43.51150053 139.21072833 -64.75273706 139.07354426 -78.5 126.4765625 C-81.70783193 122.77983639 -81.29981781 118.27622188 -81.2265625 113.63671875 C-80.53116358 106.19185967 -76.43125759 101.55415021 -70.84765625 96.875 C-63.26667736 91.40725745 -54.93826335 86.73926906 -46.1484375 83.54296875 C-43.24480554 82.44495666 -42.04535022 81.87986419 -39.8359375 79.60546875 C-38.53529583 75.42483482 -37.90031764 72.10928883 -38.9609375 67.79296875 C-40.7447019 64.91912611 -42.75890594 62.34067241 -44.85546875 59.6875 C-53.79686952 47.39514755 -55.68515862 31.58037132 -53.53125 16.85546875 C-51.2097673 7.68417907 -45.25858307 0.82635867 -37.28125 -4.0546875 C-25.05225713 -10.12800888 -10.8540049 -7.76655827 0 0 Z " fill="#000000" transform="translate(163.9609375,85.20703125)"/>
<path d="M0 0 C7.7752029 7.10461431 10.61653088 16.17555921 11.08984375 26.515625 C10.76810205 38.99360758 6.99415003 51.94493846 -1.20703125 61.59765625 C-3.23852862 64.31959717 -3.44878193 65.48290268 -3.25 68.8125 C-3.19585937 69.99779297 -3.19585937 69.99779297 -3.140625 71.20703125 C-3.09421875 71.79871094 -3.0478125 72.39039063 -3 73 C-1.98421875 73.35191406 -0.9684375 73.70382813 0.078125 74.06640625 C13.39359653 78.79549288 27.53475875 84.28144084 35 97 C36.79973286 102.39919857 36.70112627 107.93557265 34.875 113.3125 C29.41380811 121.14020838 21.83419578 123.75883095 12.75 125.69140625 C6.13368292 126.80712953 -0.29702084 127.27235581 -7 127 C-7.7734375 125.2675 -7.7734375 125.2675 -8.5625 123.5 C-16.29859873 108.37340145 -32.11939131 101.48160967 -47 95 C-46.36378777 91.38363574 -44.81022704 89.00972298 -42.75 86 C-33.08115332 71.12943293 -29.06760176 54.63575945 -32.28125 37.06640625 C-34.36789415 28.16414724 -38.16607589 21.95739441 -44 15 C-45.00806451 13.67275333 -46.01061701 12.34123043 -47 11 C-42.85858573 3.18744194 -39.24163125 -1.81598698 -31 -5.25 C-20.23501794 -7.94124552 -8.74597882 -7.52514425 0 0 Z " fill="#000000" transform="translate(216,64)"/>
<path d="M0 0 C3.2015692 3.00498162 5.477856 5.90824435 7.375 9.875 C6.83345874 14.38784382 4.21944405 16.30762473 1.140625 19.515625 C-6.50202446 28.38556123 -8.48348196 40.42531588 -8.25 51.79296875 C-7.20005511 65.26179302 -2.4845722 76.42539795 4.66796875 87.7109375 C6.04369372 90.07508658 7.04570537 92.44013858 8 95 C7.11699219 95.35191406 6.23398438 95.70382813 5.32421875 96.06640625 C-8.30896821 101.67490314 -23.08712872 108.85294015 -30 122.5625 C-32.35937339 126.77146527 -32.35937339 126.77146527 -35.05859375 127.734375 C-37.83020571 127.82539674 -40.26816087 127.49180284 -43 127 C-44.79630859 126.71962891 -44.79630859 126.71962891 -46.62890625 126.43359375 C-66.49741293 122.92502799 -66.49741293 122.92502799 -73 115 C-76.13266193 110.30100711 -75.55128097 105.49849074 -75 100 C-72.48767418 91.09726152 -62.46490617 84.80993799 -54.90234375 80.44921875 C-50.07499441 78.03879263 -45.06801925 76.11344887 -40.02734375 74.19921875 C-37.16461327 73.29694274 -37.16461327 73.29694274 -36 72 C-35.38824216 66.13003789 -36.85614902 62.95947849 -40.25 58.375 C-47.66629066 47.67431073 -51.14760923 35.0171675 -50 22 C-47.96743592 11.69024726 -43.96535082 3.18039602 -35.1875 -2.9375 C-24.15435554 -9.02475212 -9.69588133 -8.3737157 0 0 Z " fill="#000000" transform="translate(105,64)"/>
</svg>
