<?xml version="1.0" encoding="UTF-8"?>
<svg version="1.1" xmlns="http://www.w3.org/2000/svg" width="282" height="282">
<path d="M0 0 C1.25117111 -0.00922989 1.25117111 -0.00922989 2.52761841 -0.01864624 C3.41939789 -0.00427521 4.31117737 0.01009583 5.22998047 0.02490234 C6.61272659 0.02627701 6.61272659 0.02627701 8.02340698 0.02767944 C9.96845664 0.03371338 11.91349709 0.04945318 13.85839844 0.07421875 C16.84328224 0.11079223 19.82692697 0.11523763 22.81201172 0.11474609 C24.70134541 0.1245748 26.59067067 0.13623073 28.47998047 0.14990234 C29.37580841 0.15212799 30.27163635 0.15435364 31.1946106 0.15664673 C32.43632523 0.17578629 32.43632523 0.17578629 33.703125 0.1953125 C34.79755417 0.20674789 34.79755417 0.20674789 35.91409302 0.21841431 C37.72216797 0.48583984 37.72216797 0.48583984 39.72216797 2.48583984 C39.39519237 5.10164463 38.90177728 7.12662121 37.72216797 9.48583984 C37.20103626 14.71424318 37.07943263 19.12620739 39.34716797 23.92333984 C44.98614846 30.007503 51.2023967 32.46689082 59.40966797 32.86083984 C70.23249799 32.51067682 79.60308201 27.24338333 88.72216797 21.86083984 C90.72182601 20.70139572 92.72181245 19.54251772 94.72216797 18.38427734 C95.58841797 17.87558105 96.45466797 17.36688477 97.34716797 16.84277344 C103.22411601 13.48503524 103.22411601 13.48503524 106.14013672 13.48974609 C109.78174956 14.8946043 111.68461378 17.44302861 114.03466797 20.42333984 C114.51613281 21.01308594 114.99759766 21.60283203 115.49365234 22.21044922 C116.91624591 23.95885649 118.3214442 25.7198888 119.72216797 27.48583984 C120.41697266 28.35337891 121.11177734 29.22091797 121.82763672 30.11474609 C123.10195965 31.70962036 124.37273753 33.30733297 125.64013672 34.90771484 C128.05300889 37.89551152 130.54012876 40.81640181 133.03466797 43.73583984 C136.83960761 48.19222928 140.51019276 52.72752788 144.09716797 57.36083984 C147.98618802 62.37847937 152.03382693 67.21556193 156.22216797 71.98583984 C176.2638812 94.81817138 176.2638812 94.81817138 176.11669922 103.97021484 C175.47885246 108.03727735 173.70268857 109.71821357 170.72216797 112.48583984 C168.27245173 113.71069796 166.57982336 113.65306792 163.84716797 113.67333984 C162.55166016 113.69460937 162.55166016 113.69460937 161.22998047 113.71630859 C158.59803917 113.47443237 156.98236253 112.81567525 154.72216797 111.48583984 C154.66029297 112.37271484 154.59841797 113.25958984 154.53466797 114.17333984 C153.53220933 118.26028659 151.88192283 119.78848814 148.72216797 122.48583984 C145.55230629 124.07077068 142.18184536 123.77984405 138.72216797 123.48583984 C136.22216797 122.48583984 136.22216797 122.48583984 134.72216797 121.48583984 C134.33029297 122.55833984 133.93841797 123.63083984 133.53466797 124.73583984 C131.69313569 129.06782529 128.92099315 131.38642725 124.72216797 133.48583984 C122.66357422 133.43505859 122.66357422 133.43505859 120.28466797 133.17333984 C119.50220703 133.09470703 118.71974609 133.01607422 117.91357422 132.93505859 C115.72216797 132.48583984 115.72216797 132.48583984 112.72216797 130.48583984 C112.62935547 131.81615234 112.62935547 131.81615234 112.53466797 133.17333984 C111.53220933 137.26028659 109.88192283 138.78848814 106.72216797 141.48583984 C104.38250107 142.65567329 102.8882527 142.65196394 100.28466797 142.67333984 C99.50220703 142.68751953 98.71974609 142.70169922 97.91357422 142.71630859 C95.72216797 142.48583984 95.72216797 142.48583984 92.72216797 140.48583984 C93.04701172 139.66792969 93.04701172 139.66792969 93.37841797 138.83349609 C95.97828915 131.79217832 96.755359 126.07162048 94.65966797 118.79833984 C90.73399632 112.08670767 85.74508712 109.47708319 78.72216797 106.48583984 C77.03505374 104.83987474 75.36760577 103.17346836 73.72216797 101.48583984 C72.71154297 101.05271484 71.70091797 100.61958984 70.65966797 100.17333984 C66.99897572 98.07038898 66.37452635 96.15456485 64.71044922 92.41552734 C62.71574669 88.52073269 59.59059452 86.84029966 55.65966797 85.23583984 C52.02871693 83.07272008 51.43522951 81.17137532 49.78857422 77.42333984 C47.60706518 73.45986555 43.84706231 71.86080462 39.72216797 70.48583984 C37.95525243 70.34160184 36.18221687 70.26525974 34.40966797 70.23583984 C33.48541016 70.21005859 32.56115234 70.18427734 31.60888672 70.15771484 C25.16082254 70.89064771 21.56122196 74.31720624 17.40966797 79.04833984 C16.54728516 80.01900391 15.68490234 80.98966797 14.79638672 81.98974609 C12.72588331 84.28866832 12.72588331 84.28866832 11.72216797 86.48583984 C9.32442052 86.6215614 6.93441552 86.72020853 4.53466797 86.79833984 C3.86113281 86.84023437 3.18759766 86.88212891 2.49365234 86.92529297 C-1.20026853 87.0153886 -3.01430224 86.68692011 -5.97398376 84.42860413 C-8.7720331 80.85458419 -8.98217117 78.27122833 -8.90893555 73.91333008 C-8.91609085 73.16800018 -8.92324615 72.42267029 -8.93061829 71.65475464 C-8.9474738 69.20068339 -8.92812531 66.748447 -8.90673828 64.29443359 C-8.90756719 62.58480173 -8.91002742 60.87516994 -8.91404724 59.1655426 C-8.91690295 55.58692363 -8.90222527 52.00893134 -8.87475586 48.43041992 C-8.84064715 43.84457989 -8.84670173 39.25985834 -8.86541843 34.6739645 C-8.87598825 31.14543847 -8.86705131 27.61717257 -8.85203362 24.08867073 C-8.84685291 22.39779495 -8.84733227 20.706892 -8.85357857 19.01601982 C-8.85903181 16.65307069 -8.83865584 14.2917218 -8.8112793 11.92895508 C-8.81780518 11.23118454 -8.82433105 10.533414 -8.83105469 9.8144989 C-8.76645817 6.53421266 -8.45761771 4.73371837 -6.51185608 2.05101013 C-4.05572188 0.33022817 -2.95781359 -0.01152866 0 0 Z " fill="#000000" transform="translate(38.27783203125,83.51416015625)"/>
<path d="M0 0 C1.6628016 0.63482301 3.32686192 1.2663592 4.9921875 1.89453125 C8.42046838 3.18951208 11.84456754 4.49464983 15.265625 5.80859375 C21.93562961 8.3636931 28.62087959 10.87711454 35.3125 13.375 C36.45146729 13.80401611 37.59043457 14.23303223 38.76391602 14.67504883 C48.42936563 18.27258044 56.86289238 20.29442665 67.171875 20.47851562 C69.12104834 20.54961536 71.06377079 20.76473774 73 21 C75.42382292 24.63573437 75.29580633 27.32601463 75.29052734 31.52905273 C75.29724457 32.29359772 75.30396179 33.0581427 75.31088257 33.84585571 C75.32989269 36.37516768 75.33378813 38.90421477 75.3359375 41.43359375 C75.34236291 43.19092417 75.34909107 44.94825351 75.35610962 46.70558167 C75.36808961 50.39009075 75.37178966 54.07450601 75.37060547 57.7590332 C75.37040214 62.48158595 75.39771534 67.20353787 75.43214989 71.92594814 C75.45438022 75.55563626 75.45844422 79.18517883 75.45738602 82.81492805 C75.45974739 84.55607234 75.46860103 86.29722031 75.48405075 88.03829765 C75.50363495 90.47314505 75.49790363 92.90668454 75.48583984 95.34155273 C75.49707886 96.06116684 75.50831787 96.78078094 75.51989746 97.52220154 C75.47668464 100.95225187 75.22970738 102.70455042 73.09632874 105.44850159 C70.75983902 107.17774377 69.71442123 107.48719214 66.84765625 107.46875 C66.07099609 107.48292969 65.29433594 107.49710937 64.49414062 107.51171875 C62.87695303 107.50392507 61.25976553 107.49611267 59.64257812 107.48828125 C54.29624991 107.58572882 52.13536187 108.38988088 48 112 C46.01171875 112.1171875 46.01171875 112.1171875 44 111 C42.13719989 109.08146256 40.47785779 107.20206879 38.8125 105.125 C38.32692627 104.53493164 37.84135254 103.94486328 37.34106445 103.33691406 C35.88548212 101.56473482 34.44218639 99.78308536 33 98 C31.56260756 96.24991166 30.12511482 94.49990568 28.6875 92.75 C27.96691406 91.86570312 27.24632812 90.98140625 26.50390625 90.0703125 C18.69334735 80.49293451 10.84109042 70.95247043 2.83691406 61.53613281 C-1.51182681 56.41370935 -5.75924197 51.21180816 -10 46 C-12.26423684 43.23864083 -14.52915666 40.47794262 -16.80078125 37.72265625 C-18.2884946 35.88085127 -19.74371523 34.01239977 -21.16796875 32.12109375 C-22.19857422 30.76177734 -22.19857422 30.76177734 -23.25 29.375 C-23.85328125 28.55773437 -24.4565625 27.74046875 -25.078125 26.8984375 C-27.46907047 24.5366499 -28.66864222 24.25751636 -32 24 C-34.83230749 25.02545828 -34.83230749 25.02545828 -37.68359375 26.71875 C-39.31252563 27.61859619 -39.31252563 27.61859619 -40.97436523 28.53662109 C-42.11719971 29.18453613 -43.26003418 29.83245117 -44.4375 30.5 C-45.61879744 31.15250448 -46.8011757 31.80305599 -47.98461914 32.45166016 C-52.13750305 34.73053085 -56.27825191 37.03081794 -60.40625 39.35449219 C-68.76490413 44.03614221 -75.5959055 47.01808352 -85.1640625 44.41015625 C-88.57317801 43.11244767 -89.95023993 42.07464011 -92 39 C-92.82514073 34.04915562 -92.82514073 34.04915562 -92 31 C-90.51196289 29.29321289 -90.51196289 29.29321289 -88.53515625 27.66015625 C-87.44412598 26.75595947 -87.44412598 26.75595947 -86.33105469 25.83349609 C-82.55378466 22.8624762 -78.70719521 20.00234768 -74.8125 17.1875 C-69.68432477 13.45900209 -64.59184035 9.71606246 -59.63916016 5.75683594 C-39.43745076 -10.34697328 -22.78120553 -9.0202541 0 0 Z " fill="#000000" transform="translate(177,63)"/>
<path d="M0 0 C2.89746546 2.07861652 4.64557604 3.58230416 5.52734375 7.109375 C5.78019771 9.06293161 5.89996724 11.03268915 6 13 C7.216875 13.061875 8.43375 13.12375 9.6875 13.1875 C12.97858008 13.61930838 14.09828904 14.06901146 16.9375 16.0625 C19.62433547 19.88920506 19.76473648 22.3731507 20 27 C21.216875 27.04125 22.43375 27.0825 23.6875 27.125 C27.07291274 27.53990849 28.74524096 28.23284772 31 30.8125 C33 34 33 34 33 38 C34.299375 37.6596875 34.299375 37.6596875 35.625 37.3125 C39.79925159 36.92599522 41.53673976 37.69115984 45 40 C47.40777323 42.88932788 47.96115399 44.69478136 48.4375 48.4375 C47.78127191 53.78107158 45.36672016 56.59634145 41.6875 60.375 C38.13289844 62.52429397 36.09651827 62.57494993 32 62 C28.73474069 60.24178345 26.56819809 58.88935354 24.5625 55.75 C23.7890625 54.88375 23.7890625 54.88375 23 54 C20.66706666 53.95679753 18.3329866 53.95977609 16 54 C11.84143154 52.20425453 9.93539392 50.07451352 8 46 C8 45.01 8 44.02 8 43 C6.80375 43.0825 5.6075 43.165 4.375 43.25 C-0.10407241 43.25 -2.56159946 41.94720046 -6 39 C-8.08007422 35.9744375 -8 34.85524891 -8 31 C-8.58007812 31.05800781 -9.16015625 31.11601562 -9.7578125 31.17578125 C-14.10879376 31.42707555 -17.04980246 31.49455454 -20.5 28.625 C-23.86738442 25.08924636 -24.39671813 23.05608187 -24.33007812 18.13916016 C-23.75306921 14.39969851 -21.64829106 12.00683935 -19.25 9.1875 C-18.8065625 8.62869141 -18.363125 8.06988281 -17.90625 7.49414062 C-12.59284156 0.93833227 -8.57888615 -2.07076562 0 0 Z " fill="#000000" transform="translate(78,162)"/>
</svg>
