<?xml version="1.0" encoding="UTF-8"?>
<svg version="1.1" xmlns="http://www.w3.org/2000/svg" width="282" height="282">
<path d="M0 0 C6.6 0 13.2 0 20 0 C20 7.92 20 15.84 20 24 C47.06 24 74.12 24 102 24 C102 16.08 102 8.16 102 0 C108.6 0 115.2 0 122 0 C122 7.92 122 15.84 122 24 C123.93762207 23.98428955 125.87524414 23.9685791 127.87158203 23.95239258 C134.28568149 23.90394559 140.69973752 23.86951324 147.1139698 23.84456348 C151.00153991 23.82893193 154.88891138 23.80773996 158.77636719 23.77368164 C162.53056659 23.74099799 166.28457536 23.72312811 170.0389061 23.71536827 C171.46859613 23.70984085 172.89827616 23.6990471 174.32788467 23.68280983 C176.33583584 23.66091841 178.34398031 23.6597736 180.35205078 23.65942383 C181.49344513 23.65276199 182.63483948 23.64610016 183.81082153 23.63923645 C188.90338697 24.21531333 192.90283797 26.31619446 196.25 30.1875 C196.72953125 30.71730469 197.2090625 31.24710938 197.703125 31.79296875 C201.20411264 37.75097483 201.29153958 44.50167896 201.26069641 51.21556091 C201.26452196 52.11034419 201.26834751 53.00512746 201.27228898 53.92702538 C201.28255936 56.90770986 201.27863821 59.88819956 201.2746582 62.86889648 C201.27900795 65.01308367 201.28419197 67.1572693 201.29014587 69.30145264 C201.30351811 75.11339888 201.30411656 80.92528002 201.30158257 86.73723865 C201.30051177 91.59312845 201.30539898 96.44900513 201.310188 101.30489212 C201.32127681 112.76194655 201.32172394 124.21896819 201.31567383 135.67602539 C201.30963224 147.4878259 201.32195126 159.29950734 201.3432439 171.11128753 C201.36086628 181.26098242 201.36686029 191.41063943 201.36360615 201.56034905 C201.36179436 207.6186138 201.36441939 213.6767936 201.37832069 219.73504448 C201.39090488 225.43224637 201.38894918 231.12926272 201.37590981 236.82646179 C201.37354587 238.91417567 201.37627212 241.00190264 201.38453293 243.08960152 C201.39501737 245.94576701 201.38688601 248.80131187 201.3742218 251.65745544 C201.38159609 252.47790059 201.38897037 253.29834574 201.39656812 254.14365286 C201.31639824 262.77466447 199.15885365 269.84114635 193 276 C190.08078431 277.77596063 187.92421937 278.25107552 184.52652168 278.25726891 C183.18250178 278.26694224 183.18250178 278.26694224 181.81132996 278.276811 C180.83099128 278.2737138 179.8506526 278.2706166 178.84060669 278.26742554 C177.79603298 278.27195665 176.75145927 278.27648776 175.67523181 278.28115618 C172.16381441 278.29384888 168.65255114 278.29217666 165.14111328 278.29052734 C162.62812093 278.29650952 160.11513041 278.30331435 157.60214233 278.31088257 C151.47784873 278.32674128 145.35361189 278.3329923 139.22929968 278.33410732 C134.25137035 278.33505757 129.27345372 278.3391667 124.29552841 278.34550858 C110.18314126 278.36312194 96.07078454 278.37234727 81.95838632 278.37084763 C81.1975534 278.37076772 80.43672049 278.3706878 79.65283203 278.37060547 C78.51018976 278.37048283 78.51018976 278.37048283 77.34446381 278.37035771 C64.99765355 278.36954472 52.65096527 278.38868532 40.30419029 278.4168822 C27.62754687 278.44560407 14.95096294 278.45942289 2.27428615 278.45769465 C-4.84310311 278.45703052 -11.96036449 278.46253289 -19.07772446 278.48405075 C-25.77049774 278.50415524 -32.46295594 278.50359605 -39.1557579 278.48901749 C-41.6140075 278.48692134 -44.07227378 278.49167794 -46.53049469 278.5037384 C-49.88286345 278.51912214 -53.23429161 278.50992732 -56.5866394 278.49447632 C-57.56251664 278.50476344 -58.53839388 278.51505057 -59.54384315 278.52564943 C-65.20927471 278.46783023 -68.5277395 277.82566129 -73 274 C-77.80036093 268.55094164 -78.14864488 265.13633857 -78.14717102 258.0302124 C-78.15084771 257.08943635 -78.1545244 256.1486603 -78.1583125 255.17937589 C-78.16938054 252.00727381 -78.17319845 248.83520446 -78.17700195 245.66308594 C-78.18326423 243.39669184 -78.18991081 241.13029878 -78.19691467 238.86390686 C-78.21434593 232.69233522 -78.22488214 226.52077135 -78.2331202 220.34918118 C-78.23826564 216.49606376 -78.24434156 212.64294877 -78.25063133 208.78983307 C-78.26750391 198.12343462 -78.28213893 187.4570396 -78.28938007 176.79063034 C-78.29129 174.02204131 -78.29321032 171.25345228 -78.29516602 168.48486328 C-78.29564976 167.79673613 -78.2961335 167.10860899 -78.2966319 166.3996295 C-78.30493232 155.25223378 -78.33026888 144.10494537 -78.36274669 132.95759651 C-78.39581314 121.51498952 -78.41349565 110.0724626 -78.41702431 98.62980294 C-78.41937853 92.20429972 -78.42838736 85.77896605 -78.45348549 79.353508 C-78.47671289 73.30918665 -78.4810208 67.26514713 -78.47072411 61.22079277 C-78.47022734 59.00119783 -78.47658888 56.78158928 -78.49028015 54.56203651 C-78.50791709 51.53359157 -78.50093291 48.50616702 -78.48774719 45.47772217 C-78.49871644 44.5977544 -78.50968568 43.71778663 -78.52098733 42.81115317 C-78.45519932 36.55981663 -76.84815381 32.93171823 -72.40234375 28.35546875 C-67.6508393 24.56693587 -64.67786469 23.87489775 -58.69262695 23.88647461 C-57.39150467 23.88655014 -56.09038239 23.88662567 -54.74983215 23.88670349 C-53.3293148 23.89181015 -51.90879783 23.89702615 -50.48828125 23.90234375 C-49.03525338 23.90420909 -47.58222489 23.90563244 -46.12919617 23.90663147 C-42.30693828 23.91044754 -38.48471845 23.92027007 -34.66247559 23.93133545 C-30.76131709 23.94156913 -26.86015243 23.94613329 -22.95898438 23.95117188 C-15.30597023 23.96189315 -7.6529953 23.97948259 0 24 C0 16.08 0 8.16 0 0 Z M-56.4375 51.0625 C-64.04566149 65.36584361 -59 75.29870889 -59 96 C20.2 96 99.4 96 181 96 C183.94782146 72.61716391 183.94782146 72.61716391 176.28125 49.0390625 C175.6934375 48.57242188 175.105625 48.10578125 174.5 47.625 C173.9121875 47.14289062 173.324375 46.66078125 172.71875 46.1640625 C169.66179018 44.09366699 167.01443257 43.87667279 163.43676758 43.88647461 C162.51603958 43.88655014 161.59531158 43.88662567 160.64668274 43.88670349 C159.65597275 43.89186478 158.66526276 43.89702606 157.64453125 43.90234375 C156.62775803 43.9037587 155.6109848 43.90517365 154.56340027 43.90663147 C151.31307036 43.91223293 148.06280912 43.92478568 144.8125 43.9375 C142.61002704 43.94251481 140.40755299 43.94707775 138.20507812 43.95117188 C132.80335893 43.96220284 127.40169111 43.97946846 122 44 C122 49.94 122 55.88 122 62 C115.4 62 108.8 62 102 62 C102 56.06 102 50.12 102 44 C74.94 44 47.88 44 20 44 C19.67 49.61 19.34 55.22 19 61 C12.73 61.33 6.46 61.66 0 62 C0 56.06 0 50.12 0 44 C-6.40457698 43.90073975 -12.80870105 43.82834583 -19.21386719 43.78027344 C-21.39037888 43.76022236 -23.56683714 43.73297429 -25.74316406 43.69824219 C-28.88099393 43.64943788 -32.01810835 43.62696562 -35.15625 43.609375 C-36.12115356 43.58872986 -37.08605713 43.56808472 -38.0802002 43.54681396 C-45.73602504 43.54430078 -51.53626271 44.9045352 -56.4375 51.0625 Z M-59 116 C-59.0825 137.12 -59.165 158.24 -59.25 180 C-59.28641602 186.661875 -59.32283203 193.32375 -59.36035156 200.1875 C-59.37373158 206.17357986 -59.37373158 206.17357986 -59.3817749 212.15966797 C-59.38790672 214.82045518 -59.40044537 217.48047589 -59.42230225 220.14111328 C-59.45501886 224.17755226 -59.45562246 228.21342876 -59.45410156 232.25 C-59.468494 233.42973389 -59.48288643 234.60946777 -59.497715 235.82495117 C-59.46097662 243.12045339 -58.7224334 249.10518623 -53.51715469 254.55151367 C-48.40177683 259.03973747 -44.07436755 259.14994374 -37.56880188 259.15390015 C-36.69800293 259.1582824 -35.82720397 259.16266465 -34.93001717 259.1671797 C-32.00062452 259.18057616 -29.07126196 259.18674848 -26.1418457 259.19287109 C-24.04603438 259.2007714 -21.95022442 259.2090403 -19.85441589 259.21765137 C-12.96155091 259.24387991 -6.06867983 259.2591799 0.82421875 259.2734375 C3.19617021 259.27879685 5.56812163 259.28417436 7.94007301 259.28956985 C17.80614413 259.31119984 27.67221359 259.32993686 37.53830242 259.34119225 C51.68205746 259.35743323 65.82553785 259.39061358 79.96918935 259.44759309 C89.91154317 259.48628277 99.85382351 259.50582381 109.79625064 259.51111281 C115.73560114 259.51476758 121.67465877 259.52680267 127.61392784 259.55921555 C133.20279075 259.58927868 138.79118329 259.59561401 144.38010979 259.58383179 C146.42955528 259.58361091 148.4790225 259.59192775 150.52839279 259.60948563 C153.33078809 259.63218493 156.13147888 259.62387869 158.93388367 259.60800171 C159.74119751 259.6218838 160.54851136 259.63576588 161.38028926 259.65006864 C167.32954855 259.56726001 171.39918506 257.77987802 176 254 C180.07967211 248.87425812 181.12654863 245.07959794 181.12025452 238.65960693 C181.12163201 237.57934109 181.12300951 236.49907524 181.12442875 235.38607407 C181.12083064 234.20131611 181.11723253 233.01655815 181.11352539 231.79589844 C181.11364593 230.52665653 181.11376646 229.25741463 181.11389065 227.94971085 C181.11411625 224.51891922 181.10832373 221.08816254 181.10128021 217.65737915 C181.09558192 214.43711442 181.09531691 211.2168512 181.09460449 207.99658203 C181.08935883 198.58105007 181.07539767 189.16552459 181.0625 179.75 C181.041875 158.7125 181.02125 137.675 181 116 C101.8 116 22.6 116 -59 116 Z " fill="#000000" transform="translate(78,4)"/>
<path d="M0 0 C40.26 0 80.52 0 122 0 C122 6.6 122 13.2 122 20 C81.74 20 41.48 20 0 20 C0 13.4 0 6.8 0 0 Z " fill="#000000" transform="translate(96,203)"/>
<path d="M0 0 C40.26 0 80.52 0 122 0 C122 6.27 122 12.54 122 19 C81.74 19 41.48 19 0 19 C0 12.73 0 6.46 0 0 Z " fill="#000000" transform="translate(96,161)"/>
<path d="M0 0 C6.6 0 13.2 0 20 0 C20 6.6 20 13.2 20 20 C16.885625 20.020625 13.77125 20.04125 10.5625 20.0625 C9.08825562 20.07615601 9.08825562 20.07615601 7.58422852 20.09008789 C6.81522217 20.09258545 6.04621582 20.09508301 5.25390625 20.09765625 C4.46314697 20.10289307 3.6723877 20.10812988 2.85766602 20.11352539 C1 20 1 20 0 19 C-0.08651611 17.58429877 -0.10704904 16.164405 -0.09765625 14.74609375 C-0.09515869 13.9770874 -0.09266113 13.20808105 -0.09008789 12.41577148 C-0.07643188 10.9415271 -0.07643188 10.9415271 -0.0625 9.4375 C-0.041875 6.323125 -0.02125 3.20875 0 0 Z " fill="#000000" transform="translate(59,203)"/>
<path d="M0 0 C6.6 0 13.2 0 20 0 C20 6.27 20 12.54 20 19 C13.4 19 6.8 19 0 19 C0 12.73 0 6.46 0 0 Z " fill="#000000" transform="translate(59,161)"/>
</svg>
